HIERARCHY
ROOT SpineBase
{
  OFFSET 0.000000 0.000000 0.000000
  CHANNELS 6 Xposition Yposition Zposition Zrotation Xrotation Yrotation
  JOINT SpineMid
  {
    OFFSET 0.000000 33.080759 0.000000
    CHANNELS 3 Zrotation Xrotation Yrotation
    JOINT SpineShoulder
    {
      OFFSET 0.295827 24.585762 -0.830390
      CHANNELS 3 Zrotation Xrotation Yrotation
      JOINT Neck
      {
        OFFSET 0.092227 8.167245 -0.691600
        CHANNELS 3 Zrotation Xrotation Yrotation
        JOINT Head
        {
          OFFSET 7.976383 10.289916 3.611635
          CHANNELS 3 Zrotation Xrotation Yrotation
          End Site
          {
            OFFSET 0 0 0
          }
        }
      }
      JOINT ShoulderLeft
      {
        OFFSET -7.219419 -3.068874 -12.808197
        CHANNELS 3 Zrotation Xrotation Yrotation
        JOINT ElbowLeft
        {
          OFFSET -4.340355 -22.544364 -8.172032
          CHANNELS 3 Zrotation Xrotation Yrotation
          JOINT WristLeft
          {
            OFFSET 9.674974 -18.721001 3.725702
            CHANNELS 3 Zrotation Xrotation Yrotation
            JOINT HandLeft
            {
              OFFSET 2.896415 -6.973094 2.762182
              CHANNELS 3 Zrotation Xrotation Yrotation
              JOINT HandTipLeft
              {
                OFFSET 5.567574 -6.637545 -1.469239
                CHANNELS 3 Zrotation Xrotation Yrotation
                End Site
                {
                  OFFSET 0 0 0
                }
              }
              JOINT ThumbLeft
              {
                OFFSET 1.385111 0.186743 -2.992877
                CHANNELS 3 Zrotation Xrotation Yrotation
                End Site
                {
                  OFFSET 0 0 0
                }
              }
            }
          }
        }
      }
      JOINT ShoulderRight
      {
        OFFSET 8.822736 -6.973604 12.536453
        CHANNELS 3 Zrotation Xrotation Yrotation
        JOINT ElbowRight
        {
          OFFSET 2.634842 -26.033631 -0.559182
          CHANNELS 3 Zrotation Xrotation Yrotation
          JOINT WristRight
          {
            OFFSET 1.268812 -16.795809 -14.043707
            CHANNELS 3 Zrotation Xrotation Yrotation
            JOINT HandRight
            {
              OFFSET 1.046438 -3.430047 -0.852635
              CHANNELS 3 Zrotation Xrotation Yrotation
              JOINT HandTipRight
              {
                OFFSET 4.642797 -9.038407 3.525470
                CHANNELS 3 Zrotation Xrotation Yrotation
                End Site
                {
                  OFFSET 0 0 0
                }
              }
              JOINT ThumbRight
              {
                OFFSET -2.523820 1.275421 -6.989297
                CHANNELS 3 Zrotation Xrotation Yrotation
                End Site
                {
                  OFFSET 0 0 0
                }
              }
            }
          }
        }
      }
    }
  }
  JOINT HipLeft
  {
    OFFSET -3.304316 2.100619 -8.276262
    CHANNELS 3 Zrotation Xrotation Yrotation
    JOINT KneeLeft
    {
      OFFSET -4.898992 -34.072173 -3.948311
      CHANNELS 3 Zrotation Xrotation Yrotation
      JOINT AnkleLeft
      {
        OFFSET -3.987744 -30.447464 5.116633
        CHANNELS 3 Zrotation Xrotation Yrotation
        JOINT FootLeft
        {
          OFFSET 5.780418 -5.168215 -5.136513
          CHANNELS 3 Zrotation Xrotation Yrotation
          End Site
          {
            OFFSET 0 0 0
          }
        }
      }
    }
  }
  JOINT HipRight
  {
    OFFSET 3.735173 0.952569 1.288472
    CHANNELS 3 Zrotation Xrotation Yrotation
    JOINT KneeRight
    {
      OFFSET 13.868532 -27.961706 -10.595141
      CHANNELS 3 Zrotation Xrotation Yrotation
      JOINT AnkleRight
      {
        OFFSET -14.108026 25.968489 -11.654063
        CHANNELS 3 Zrotation Xrotation Yrotation
        JOINT FootRight
        {
          OFFSET 4.622143 -9.761008 -5.710044
          CHANNELS 3 Zrotation Xrotation Yrotation
          End Site
          {
            OFFSET 0 0 0
          }
        }
      }
    }
  }
}
MOTION
Frames: 14
Frame Time: 0.033333
-13.462277 71.877514 274.324420 -0.000000 0.000000 -53.647535 -0.000000 0.000000 53.647535 -0.000000 0.000000 0.000000 -0.000000 0.000000 0.000000 0.000000 0.000000 0.000000 -0.000000 0.000000 0.000000 -0.000000 0.000000 0.000000 -0.000000 0.000000 0.000000 -0.000000 0.000000 0.000000 0.000000 0.000000 0.000000 0.000000 0.000000 0.000000 -0.000000 0.000000 0.000000 -0.000000 0.000000 0.000000 -0.000000 0.000000 0.000000 -0.000000 0.000000 0.000000 0.000000 0.000000 0.000000 0.000000 0.000000 0.000000 -0.000000 0.000000 53.647535 -0.000000 0.000000 0.000000 -0.000000 0.000000 0.000000 0.000000 0.000000 0.000000 -0.000000 0.000000 53.647535 -0.000000 0.000000 0.000000 -0.000000 0.000000 0.000000 0.000000 0.000000 0.000000
-13.401331 71.866539 274.171286 -0.044481 0.007518 -53.629610 0.032431 0.031357 53.629604 -0.000000 0.000000 0.000000 0.970942 -0.693000 0.204044 0.000000 0.000000 0.000000 -0.895436 0.773516 0.180996 2.110579 -0.173307 0.394092 -0.373084 3.514233 1.472979 2.178816 -4.575175 -2.845084 0.000000 0.000000 0.000000 0.000000 0.000000 0.000000 -0.473711 1.513004 0.169592 1.662853 -0.776753 -1.067711 -7.072950 4.260059 4.128251 2.193203 -1.901289 -2.620014 0.000000 0.000000 0.000000 0.000000 0.000000 0.000000 2.826479 -4.629446 54.708653 5.792573 8.237018 -1.323769 2.450394 2.649894 0.502767 0.000000 0.000000 0.000000 -1.524820 0.663971 54.600473 8.273354 -14.938875 -3.166295 0.171495 4.842933 -5.992670 0.000000 0.000000 0.000000
-13.367178 71.860830 274.017347 -0.098547 0.022227 -53.493496 0.076492 0.065988 53.493471 -0.000000 0.000000 0.000000 1.869316 -1.333985 0.406504 0.000000 0.000000 0.000000 -1.772374 1.405424 0.390758 3.801127 -0.267113 0.680102 -0.686125 5.849455 2.394917 3.923466 -7.575760 -4.336182 0.000000 0.000000 0.000000 0.000000 0.000000 0.000000 -0.892055 2.878326 0.333029 2.940343 -1.531578 -1.807959 -14.846988 8.054739 8.544686 4.377562 -2.858878 -5.121463 0.000000 0.000000 0.000000 0.000000 0.000000 0.000000 4.614045 -7.602373 55.383778 10.720451 13.803932 -2.855963 3.403500 4.183560 0.767285 0.000000 0.000000 0.000000 -2.987229 1.161230 55.416211 15.572904 -28.648078 -4.195046 0.799246 6.786784 -13.511245 0.000000 0.000000 0.000000
-13.359819 71.860386 273.862602 -0.162244 0.044145 -53.240846 0.132463 0.103564 53.240789 -0.000000 0.000000 0.000000 2.691857 -1.921415 0.604275 0.000000 0.000000 0.000000 -2.623639 1.888146 0.624405 5.138406 -0.249455 0.872378 -0.945032 7.042560 2.808005 5.283716 -8.917547 -4.727194 0.000000 0.000000 0.000000 0.000000 0.000000 0.000000 -1.253372 4.094008 0.486412 3.830162 -2.244180 -2.250321 -22.802610 10.881342 12.931612 6.400679 -2.328410 -7.138646 0.000000 0.000000 0.000000 0.000000 0.000000 0.000000 5.532176 -9.334619 55.627810 14.522524 16.965179 -4.104541 3.651082 5.348277 0.864554 0.000000 0.000000 0.000000 -4.378865 1.499792 56.088536 21.969101 -39.766522 -3.646502 1.415449 6.169654 -21.000452 0.000000 0.000000 0.000000
-13.379254 71.865207 273.707052 -0.235627 0.073302 -52.872902 0.200664 0.143621 52.872802 -0.000000 0.000000 0.000000 3.435881 -2.454246 0.794476 0.000000 0.000000 0.000000 -3.442166 2.216429 0.876713 6.155527 -0.093391 0.980557 -1.155956 7.123376 2.733114 6.236957 -8.561606 -4.182402 0.000000 0.000000 0.000000 0.000000 0.000000 0.000000 -1.556231 5.159214 0.626307 4.329905 -2.902040 -2.419654 -30.201747 12.409848 16.744187 8.238019 -0.107247 -8.287995 0.000000 0.000000 0.000000 0.000000 0.000000 0.000000 5.679512 -10.052236 55.436347 16.898462 17.895330 -4.678080 3.749657 6.670076 0.816487 0.000000 0.000000 0.000000 -5.694130 1.687249 56.611913 27.570304 -48.221782 -2.187319 1.762729 4.340107 -27.366544 0.000000 0.000000 0.000000
-13.425482 71.875293 273.550696 -0.318761 0.109731 -52.390548 0.281460 0.185553 52.390397 -0.000000 0.000000 0.000000 4.099271 -2.931881 0.974493 0.000000 0.000000 0.000000 -4.221184 2.387390 1.142341 6.860212 0.225948 1.012644 -1.333165 6.085785 2.163195 6.710413 -6.476634 -2.764818 0.000000 0.000000 0.000000 0.000000 0.000000 0.000000 -1.799438 6.073928 0.749770 4.435706 -3.499572 -2.334894 -36.330584 12.579072 19.398125 10.053724 3.433652 -8.327490 0.000000 0.000000 0.000000 0.000000 0.000000 0.000000 5.095734 -9.828877 54.816351 17.658905 16.671674 -4.352955 4.047499 8.459482 0.640682 0.000000 0.000000 0.000000 -6.930044 1.730454 56.981473 32.385396 -54.489444 -0.403467 2.028582 2.246325 -32.478213 0.000000 0.000000 0.000000
-13.524129 71.892133 273.373352 -0.414885 0.211011 -51.854273 0.422207 0.195951 51.854315 -0.000000 0.000000 0.000000 4.672728 -3.387705 1.173321 0.000000 0.000000 0.000000 -4.743066 2.472791 1.325559 6.382699 1.354465 1.268207 -2.056177 0.473024 -0.784805 6.334375 2.790572 3.035072 0.000000 0.000000 0.000000 0.000000 0.000000 0.000000 -1.811836 7.237589 0.887200 3.536499 -4.929241 -1.765554 -40.559675 9.592811 19.027658 12.429086 10.286248 -6.552642 0.000000 0.000000 0.000000 0.000000 0.000000 0.000000 4.733561 -9.861486 54.219657 18.200832 16.022692 -4.201969 2.045377 7.550895 0.859463 0.000000 0.000000 0.000000 -7.198646 1.322673 56.697991 32.678360 -56.361166 -1.183338 4.500907 -0.590989 -36.872687 0.000000 0.000000 0.000000
-13.618674 71.937399 273.232297 -0.486785 0.307201 -51.422514 0.543703 0.188993 51.422923 -0.000000 0.000000 0.000000 4.999994 -3.602601 1.250921 0.000000 0.000000 0.000000 -5.046780 2.773997 1.394538 4.854212 1.643310 1.167946 -1.742509 -3.881452 -2.923925 3.647984 9.343270 7.972702 0.000000 0.000000 0.000000 0.000000 0.000000 0.000000 -1.852514 7.938371 0.973187 2.517743 -5.389153 -1.054350 -42.106228 5.178921 16.059165 15.934483 16.819812 -3.086832 0.000000 0.000000 0.000000 0.000000 0.000000 0.000000 2.765601 -7.412850 53.025927 15.365938 10.343754 -2.093853 3.585696 10.516452 0.424113 0.000000 0.000000 0.000000 -8.664912 0.910642 57.257692 29.305579 -56.021401 -4.665162 3.931952 -4.490216 -35.140465 0.000000 0.000000 0.000000
-13.733394 71.972887 273.097332 -0.592640 0.355707 -50.742186 0.650451 0.233796 50.742698 -0.000000 0.000000 0.000000 5.572937 -4.004390 1.413326 0.000000 0.000000 0.000000 -5.808375 2.329355 1.746857 5.339149 2.826538 1.165333 -2.891949 -8.594252 -5.646295 2.574630 13.721587 10.881315 0.000000 0.000000 0.000000 0.000000 0.000000 0.000000 -1.998392 8.104925 1.006405 1.775462 -4.847051 -0.384865 -40.606002 5.553286 15.111225 17.354484 16.890193 -1.588913 0.000000 0.000000 0.000000 0.000000 0.000000 0.000000 -0.832507 -2.452828 51.141918 10.785166 0.066374 0.888506 6.233587 15.413322 -0.175982 0.000000 0.000000 0.000000 -9.452187 0.665416 57.139405 32.493532 -59.759726 -3.588191 3.520033 -9.125081 -39.865492 0.000000 0.000000 0.000000
-13.860491 71.978243 272.981836 -0.705515 0.287200 -49.601006 0.675966 0.351152 49.600703 -0.000000 0.000000 0.000000 6.125368 -4.347114 1.536162 0.000000 0.000000 0.000000 -7.010184 1.239560 2.344375 6.606268 4.207402 0.705306 -2.885882 -11.462842 -6.865220 1.089168 16.878656 12.815011 0.000000 0.000000 0.000000 0.000000 0.000000 0.000000 -2.282171 7.929589 1.011560 0.865493 -3.710950 0.570692 -39.502860 -0.592420 9.370035 17.600757 29.288218 6.159414 0.000000 0.000000 0.000000 0.000000 0.000000 0.000000 -5.961089 4.967499 48.849617 6.011546 -13.903956 3.691535 9.333410 21.140559 -0.937610 0.000000 0.000000 0.000000 -10.497523 0.673397 56.699101 41.545025 -65.542880 2.233380 2.867678 -9.251266 -45.200916 0.000000 0.000000 0.000000
-13.970318 72.040335 272.676947 -0.821687 0.346400 -48.653258 0.802868 0.388032 48.653023 -0.000000 0.000000 0.000000 6.588291 -4.535875 1.555042 0.000000 0.000000 0.000000 -8.581460 -0.172587 3.093021 8.487258 5.876936 0.058380 -2.464961 -13.225859 -7.321678 0.425275 18.984129 13.670222 0.000000 0.000000 0.000000 0.000000 0.000000 0.000000 -2.867140 6.996540 0.947037 1.707235 -2.933279 0.506621 -44.077303 -2.474844 9.420757 22.695434 36.211569 12.133685 0.000000 0.000000 0.000000 0.000000 0.000000 0.000000 -11.297077 13.826603 47.348758 1.228436 -29.237213 5.471653 12.518574 26.816143 -1.588317 0.000000 0.000000 0.000000 -11.542507 0.089463 56.445719 64.217813 -70.679022 20.154210 2.154653 -4.514720 -51.480062 0.000000 0.000000 0.000000
-14.028708 72.055764 272.174107 -0.941428 0.529377 -46.599233 1.031465 0.320301 46.600700 -0.780700 0.272024 -0.067337 8.110293 -5.318024 1.896445 0.000000 0.000000 0.000000 -9.583671 -2.577317 3.980790 11.469504 8.628237 -0.579080 -0.819689 -14.821815 -6.739908 -3.165746 22.919914 16.431114 0.000000 0.000000 0.000000 0.000000 0.000000 0.000000 -2.709618 6.486934 1.022422 2.010115 -3.810526 0.688245 -45.862733 -1.251172 11.010067 23.677701 38.587379 15.010481 0.000000 0.000000 0.000000 0.000000 0.000000 0.000000 -15.572670 23.070714 45.449521 -3.368770 -43.776943 6.035901 14.824377 32.291339 -1.410076 0.000000 0.000000 0.000000 -13.007000 0.424246 55.505710 101.971480 -71.248621 53.124871 0.478008 2.628552 -57.765315 0.000000 0.000000 0.000000
-14.303771 71.882812 271.990445 -1.416878 0.161505 -42.580682 0.602379 -0.051952 42.547380 -0.286959 0.239477 -0.075112 9.893946 -5.848348 2.277191 0.000000 0.000000 0.000000 -10.729315 -4.798579 4.888438 16.154910 12.093663 -1.108555 -1.198687 -14.015522 -5.948861 -1.360211 21.670367 13.585540 0.000000 0.000000 0.000000 0.000000 0.000000 0.000000 -2.871374 6.887693 1.146841 2.627976 -5.253769 0.621351 -47.665559 1.395310 14.190983 21.677764 39.872802 17.939660 0.000000 0.000000 0.000000 0.000000 0.000000 0.000000 -20.355007 32.821522 42.811671 -3.634695 -56.876506 7.831793 14.380665 36.472212 0.266290 0.000000 0.000000 0.000000 -15.742867 1.584773 53.573396 137.737745 -64.891253 83.067572 1.855343 11.611792 -68.806809 0.000000 0.000000 0.000000
-14.810718 71.587823 272.112132 -2.252925 -0.609681 -37.617602 0.539238 0.196263 37.550193 -0.385286 0.113235 -0.116529 12.774501 -6.371032 2.660916 0.000000 0.000000 0.000000 -12.104203 -6.595861 5.983841 21.837948 15.548551 -1.926191 -1.882487 -11.170410 -4.702817 0.484589 15.048386 8.217253 0.000000 0.000000 0.000000 0.000000 0.000000 0.000000 -2.371001 8.514223 1.409520 1.360041 -7.906004 1.442710 -47.868235 6.842451 18.378137 19.011422 38.649411 19.397367 0.000000 0.000000 0.000000 0.000000 0.000000 0.000000 -24.573949 41.787157 40.342338 2.717106 -66.685527 13.977308 11.644355 39.028316 2.963207 0.000000 0.000000 0.000000 -19.102050 4.397143 51.764117 161.044964 -53.539237 100.887824 11.203833 21.983171 -89.496692 0.000000 0.000000 0.000000
